<?xml version="1.0" standalone="no"?>
<!DOCTYPE svg PUBLIC "-//W3C//DTD SVG 20010904//EN"
 "http://www.w3.org/TR/2001/REC-SVG-20010904/DTD/svg10.dtd">
<svg version="1.0" xmlns="http://www.w3.org/2000/svg"
 width="371.000000pt" height="360.000000pt" viewBox="0 0 371.000000 360.000000"
 preserveAspectRatio="xMidYMid meet">

<g transform="translate(0.000000,360.000000) scale(0.100000,-0.100000)"
fill="#000000" stroke="none">
<path d="M1678 3233 c7 -3 16 -2 19 1 4 3 -2 6 -13 5 -11 0 -14 -3 -6 -6z"/>
<path d="M1968 3233 c7 -3 16 -2 19 1 4 3 -2 6 -13 5 -11 0 -14 -3 -6 -6z"/>
<path d="M1598 3223 c7 -3 16 -2 19 1 4 3 -2 6 -13 5 -11 0 -14 -3 -6 -6z"/>
<path d="M1801 3131 c-21 -21 -37 -122 -26 -169 8 -40 38 -65 77 -65 44 0 68
32 68 94 l0 49 -46 0 c-38 0 -45 -3 -42 -17 2 -11 14 -19 31 -21 24 -3 26 -6
20 -30 -10 -42 -31 -52 -57 -26 -19 19 -22 134 -4 152 19 19 56 14 63 -9 9
-26 41 -21 37 6 -10 53 -82 75 -121 36z"/>
<path d="M1585 3133 c-11 -3 -24 -8 -28 -12 -10 -9 22 -221 35 -238 20 -25 30
-1 24 53 -8 70 7 71 53 4 33 -49 61 -65 61 -35 0 9 -12 33 -26 54 -24 38 -25
40 -10 70 38 72 -19 126 -109 104z m79 -56 c9 -15 7 -21 -8 -33 -32 -23 -53
-18 -58 16 -3 17 -2 33 1 36 11 11 54 -2 65 -19z"/>
<path d="M2021 3118 c-14 -38 -43 -206 -39 -219 3 -8 30 -19 61 -25 90 -18
109 13 21 35 -41 10 -45 14 -40 34 3 12 6 28 6 35 0 8 13 12 43 10 56 -4 59
22 4 35 -28 7 -37 13 -33 24 3 8 6 24 6 35 0 14 5 18 16 14 9 -3 34 -9 56 -12
35 -6 40 -5 36 11 -2 13 -19 23 -53 32 -68 17 -74 16 -84 -9z"/>
<path d="M1398 3082 c-27 -8 -48 -21 -48 -27 0 -14 59 -193 71 -217 9 -16 13
-16 64 2 73 25 78 29 65 45 -9 11 -18 11 -52 -1 -46 -16 -53 -12 -63 28 -6 23
-3 28 19 34 14 3 31 13 37 21 18 20 -6 34 -38 22 -36 -13 -40 -12 -51 20 -10
29 -9 30 26 42 44 14 64 28 56 40 -7 12 -31 10 -86 -9z"/>
<path d="M2226 3082 c-11 -18 -76 -205 -76 -219 0 -8 7 -13 17 -11 9 2 25 28
39 63 25 68 32 61 36 -35 3 -57 5 -65 23 -65 15 0 27 20 57 100 42 111 46 138
22 133 -9 -2 -26 -29 -39 -63 -26 -68 -33 -62 -37 35 -2 51 -7 65 -20 68 -9 2
-19 -1 -22 -6z"/>
<path d="M1224 3010 c-7 -7 -8 -32 -2 -72 4 -34 7 -63 5 -65 -2 -2 -27 15 -55
37 -47 37 -82 45 -82 18 0 -14 110 -207 122 -214 5 -4 14 -2 20 4 7 7 1 28
-21 66 -17 31 -31 58 -31 61 0 3 16 -6 35 -21 49 -37 66 -27 58 33 -7 55 1 52
37 -15 24 -44 60 -69 60 -40 0 18 -112 210 -125 215 -6 2 -15 -1 -21 -7z"/>
<path d="M2438 2958 c-26 -22 -88 -134 -88 -160 0 -34 39 -68 77 -68 30 0 63
21 63 40 0 15 -26 18 -44 4 -23 -16 -56 -2 -56 24 0 10 16 44 36 75 31 50 40
58 63 55 21 -2 27 -9 29 -36 4 -42 35 -41 40 2 7 57 -74 100 -120 64z"/>
<path d="M2690 2946 c0 -2 8 -10 18 -17 15 -13 16 -12 3 4 -13 16 -21 21 -21
13z"/>
<path d="M966 2836 c-57 -50 -60 -36 44 -159 35 -42 68 -77 72 -77 15 0 98 82
98 96 0 22 -19 17 -60 -16 l-38 -30 -21 29 -21 29 25 20 c25 20 34 52 15 52
-6 0 -24 -10 -40 -22 l-29 -21 -20 24 -21 24 36 33 c21 20 33 40 30 48 -8 21
-16 17 -70 -30z"/>
<path d="M2617 2873 c-2 -5 -14 -39 -27 -76 -12 -37 -33 -81 -46 -96 -13 -16
-24 -36 -24 -45 0 -26 28 -18 52 14 12 17 55 48 95 70 40 22 73 45 73 50 0 22
-25 20 -71 -5 -27 -14 -49 -24 -49 -22 0 3 7 24 15 47 8 23 15 49 15 56 0 15
-26 19 -33 7z"/>
<path d="M2840 2806 c0 -2 8 -10 18 -17 15 -13 16 -12 3 4 -13 16 -21 21 -21
13z"/>
<path d="M2880 2766 c0 -2 8 -10 18 -17 15 -13 16 -12 3 4 -13 16 -21 21 -21
13z"/>
<path d="M1816 2731 c-21 -13 -29 -13 -49 -2 -29 16 -86 6 -94 -16 -4 -11 -15
-13 -44 -8 -46 8 -112 -12 -219 -65 -101 -51 -160 -95 -160 -120 0 -11 -3 -21
-7 -21 -5 -1 -18 -3 -31 -4 -27 -3 -74 -44 -69 -59 7 -18 -13 -46 -32 -46 -25
0 -55 -36 -57 -68 -1 -15 -3 -30 -3 -34 -1 -5 -10 -8 -21 -8 -15 0 -30 -22
-64 -92 -25 -51 -50 -112 -57 -136 -7 -23 -15 -41 -18 -39 -97 54 -167 67
-241 42 -172 -57 -223 -269 -96 -403 61 -66 154 -92 244 -68 l52 13 -4 -38
c-3 -22 -8 -45 -12 -51 -5 -7 -9 -19 -10 -28 -1 -8 -5 -35 -9 -60 -5 -25 -8
-60 -7 -77 1 -18 -3 -33 -8 -33 -15 0 -12 -21 5 -40 8 -8 21 -41 29 -72 14
-56 38 -117 57 -148 5 -8 13 -24 18 -35 5 -11 27 -44 50 -72 22 -29 41 -54 41
-57 0 -12 127 -144 181 -189 50 -41 232 -157 246 -157 7 0 13 -4 13 -10 0 -13
4 -14 -86 16 -112 36 -278 125 -384 205 -49 38 -90 66 -90 63 0 -21 198 -163
296 -212 81 -41 232 -101 269 -108 17 -3 64 -13 105 -23 104 -25 123 -26 310
-25 127 1 187 7 258 23 52 11 97 20 100 19 4 -1 16 3 27 7 82 34 212 86 220
88 5 1 16 8 23 15 8 7 18 10 23 7 5 -4 9 -2 9 3 0 9 79 63 92 63 9 0 60 42
111 92 22 20 42 37 46 37 14 0 144 143 181 199 8 13 23 33 34 44 10 12 22 32
27 45 5 14 14 20 21 16 6 -4 9 -3 5 2 -7 13 48 115 58 106 5 -4 5 -2 2 4 -8
13 36 127 45 119 3 -4 6 0 5 7 -1 24 15 78 24 78 5 0 6 7 3 15 -4 8 -1 22 5
29 7 8 8 17 3 20 -5 3 -17 -23 -26 -57 -10 -34 -37 -105 -62 -157 -113 -239
-296 -447 -516 -586 -56 -35 -179 -96 -184 -91 -2 2 19 18 46 36 49 32 123 95
185 159 18 17 37 32 44 32 7 0 10 4 6 9 -3 6 7 25 22 43 34 40 47 60 76 118
12 25 25 48 29 51 5 3 11 40 14 82 4 42 10 75 13 72 11 -6 5 227 -7 270 -6 22
-11 62 -11 89 1 47 1 48 27 41 15 -3 55 -9 90 -12 84 -7 137 13 195 76 116
124 77 315 -77 387 -67 31 -135 31 -202 0 l-52 -24 -22 66 c-44 130 -135 282
-170 282 -11 0 -20 3 -21 8 -5 49 -38 89 -78 94 -17 2 -27 10 -29 23 -7 35
-43 65 -78 65 -26 0 -33 5 -38 25 -10 41 -184 117 -328 144 -35 6 -52 5 -67
-5 -19 -14 -51 -10 -51 6 0 15 -70 16 -94 1z m-200 -292 c9 -16 -6 -26 -48
-32 -47 -7 -49 8 -5 27 40 18 44 18 53 5z m44 1 c0 -5 -4 -10 -10 -10 -5 0
-10 5 -10 10 0 6 5 10 10 10 6 0 10 -4 10 -10z m5 -90 c-3 -5 -12 -10 -18 -10
-7 0 -6 4 3 10 19 12 23 12 15 0z m-878 -335 c27 -8 58 -24 68 -35 18 -20 18
-20 -131 -20 l-149 1 30 24 c27 22 78 41 116 44 8 1 38 -6 66 -14z m2215 4
c21 -5 50 -21 65 -34 l28 -24 -150 0 -150 0 29 23 c51 42 112 54 178 35z m98
-105 c0 -8 -151 -264 -156 -264 -10 0 -124 218 -124 237 0 21 5 22 83 26 173
7 197 7 197 1z m-2240 -41 c-13 -21 -45 -77 -72 -126 -28 -48 -54 -89 -58 -92
-6 -4 -105 154 -157 248 -2 4 66 7 152 7 l157 0 -22 -37z m-216 -175 c39 -70
36 -79 -13 -54 -77 41 -126 144 -104 224 6 25 13 15 117 -170z m2506 129 c0
-47 -23 -104 -58 -140 -29 -31 -78 -60 -92 -55 -5 2 24 60 63 129 42 73 75
121 79 115 4 -6 8 -28 8 -49z m-2276 -82 c16 -24 16 -27 -4 -55 -22 -30 -77
-66 -87 -56 -4 4 66 136 73 136 1 0 9 -11 18 -25z m2006 -79 l23 -38 -24 7
c-13 4 -36 16 -51 26 -25 19 -26 20 -11 50 17 34 14 36 63 -45z"/>
<path d="M2927 1894 c-13 -14 -8 -131 7 -143 24 -20 37 11 34 81 -2 47 -7 64
-18 66 -9 1 -19 0 -23 -4z"/>
<path d="M2925 1720 c-4 -7 -3 -16 3 -22 14 -14 45 -2 40 15 -6 16 -34 21 -43
7z"/>
<path d="M706 1885 c-12 -33 -6 -122 9 -135 26 -22 36 2 33 76 -2 54 -6 69
-19 72 -9 2 -19 -4 -23 -13z"/>
<path d="M710 1711 c0 -15 6 -21 21 -21 14 0 19 5 17 17 -5 26 -38 29 -38 4z"/>
<path d="M3221 1674 c0 -11 3 -14 6 -6 3 7 2 16 -1 19 -3 4 -6 -2 -5 -13z"/>
<path d="M3190 1550 c0 -11 4 -20 9 -20 5 0 7 9 4 20 -3 11 -7 20 -9 20 -2 0
-4 -9 -4 -20z"/>
<path d="M3180 1509 c0 -5 5 -7 10 -4 6 3 10 8 10 11 0 2 -4 4 -10 4 -5 0 -10
-5 -10 -11z"/>
<path d="M617 1130 c3 -11 9 -20 15 -20 5 0 4 9 -2 20 -6 11 -12 20 -14 20 -2
0 -2 -9 1 -20z"/>
<path d="M652 1075 c6 -14 15 -25 20 -25 5 0 1 11 -8 25 -9 14 -18 25 -20 25
-2 0 2 -11 8 -25z"/>
<path d="M695 1013 c30 -46 87 -113 96 -113 5 0 -16 32 -47 70 -58 72 -80 91
-49 43z"/>
<path d="M825 860 c16 -16 31 -28 33 -25 7 7 -39 55 -52 55 -5 0 3 -13 19 -30z"/>
</g>
</svg>
