<?xml version="1.0" standalone="no"?>
<!DOCTYPE svg PUBLIC "-//W3C//DTD SVG 20010904//EN"
 "http://www.w3.org/TR/2001/REC-SVG-20010904/DTD/svg10.dtd">
<svg version="1.0" xmlns="http://www.w3.org/2000/svg"
 width="512.000000pt" height="512.000000pt" viewBox="0 0 512.000000 512.000000"
 preserveAspectRatio="xMidYMid meet">

<g transform="translate(0.000000,512.000000) scale(0.100000,-0.100000)"
fill="#000000" stroke="none">
<path d="M985 5108 c-42 -24 -44 -35 -45 -244 l0 -201 26 -27 c29 -28 77 -35
105 -13 35 27 39 54 39 247 l0 192 -29 29 c-31 30 -63 36 -96 17z"/>
<path d="M302 4817 c-15 -15 -22 -36 -22 -61 0 -35 10 -48 126 -166 69 -71
141 -136 159 -144 46 -22 92 -5 111 41 22 51 2 82 -146 227 -120 118 -131 126
-167 126 -28 0 -46 -7 -61 -23z"/>
<path d="M1518 4713 c-72 -71 -136 -141 -144 -156 -31 -58 10 -120 77 -120 26
0 53 23 175 144 124 124 144 148 144 175 0 50 -33 84 -82 84 -39 0 -47 -6
-170 -127z"/>
<path d="M955 4397 c-60 -20 -95 -41 -147 -86 -126 -112 -158 -297 -79 -466
38 -81 1197 -1965 1223 -1988 22 -19 69 -22 97 -7 28 15 45 64 33 97 -5 15
-271 453 -592 972 -320 520 -590 961 -600 982 -67 130 -32 262 83 318 81 39
157 19 237 -62 25 -26 258 -345 518 -711 448 -630 475 -666 508 -672 27 -5 42
-2 62 13 43 32 49 63 22 124 -27 64 -30 157 -7 210 70 158 268 207 400 98 20
-17 55 -63 78 -102 65 -113 82 -136 112 -148 32 -14 82 3 97 32 15 26 12 76
-6 110 -39 76 -23 200 36 271 70 85 202 113 306 64 63 -29 91 -63 179 -216 73
-128 104 -157 151 -146 61 16 80 76 48 152 -29 69 3 162 70 203 61 38 169 20
217 -35 16 -18 496 -847 596 -1029 82 -149 143 -304 173 -440 6 -27 25 -144
41 -260 31 -216 62 -365 98 -469 12 -33 20 -60 19 -61 -2 -1 -1329 -766 -1621
-934 l-27 -15 -78 75 c-318 309 -696 581 -1245 895 -222 127 -268 159 -322
224 -101 121 -139 256 -105 380 9 36 28 60 87 118 73 70 75 74 70 110 -16 99
-111 95 -217 -10 -174 -175 -163 -471 28 -701 69 -84 126 -126 305 -228 602
-344 991 -622 1294 -926 116 -116 154 -142 188 -129 47 18 1794 1032 1813
1053 29 32 28 53 -8 150 -46 128 -77 263 -105 463 -54 385 -101 540 -245 800
-169 305 -583 1011 -614 1047 -22 25 -63 55 -104 75 -60 30 -75 33 -157 33
-79 0 -97 -4 -148 -28 -35 -18 -74 -48 -99 -78 l-43 -49 -45 44 c-98 95 -192
131 -329 124 -71 -3 -99 -10 -154 -36 -81 -37 -163 -116 -197 -187 -13 -27
-24 -51 -26 -53 -1 -2 -26 10 -55 27 -181 102 -395 71 -529 -76 -27 -29 -59
-76 -73 -104 l-24 -51 -35 49 c-19 26 -192 269 -383 538 -204 287 -372 512
-404 544 -104 101 -253 145 -366 108z"/>
<path d="M39 4167 c-46 -35 -50 -88 -10 -128 l29 -29 192 0 c193 0 220 4 247
39 22 28 15 76 -13 105 l-27 26 -201 0 c-142 -1 -206 -4 -217 -13z"/>
<path d="M555 3741 c-16 -10 -85 -75 -152 -143 -117 -119 -123 -127 -123 -166
0 -49 34 -82 84 -82 27 0 51 20 172 143 78 78 144 150 147 159 10 28 -13 78
-44 93 -36 19 -48 19 -84 -4z"/>
</g>
</svg>
