<?xml version="1.0" standalone="no"?>
<!DOCTYPE svg PUBLIC "-//W3C//DTD SVG 20010904//EN"
 "http://www.w3.org/TR/2001/REC-SVG-20010904/DTD/svg10.dtd">
<svg version="1.0" xmlns="http://www.w3.org/2000/svg"
 width="769.000000pt" height="594.000000pt" viewBox="0 0 769.000000 594.000000"
 preserveAspectRatio="xMidYMid meet">

<g transform="translate(0.000000,594.000000) scale(0.100000,-0.100000)"
fill="#000000" stroke="none">
<path d="M7038 5612 c-38 -25 -53 -46 -119 -170 -17 -31 -55 -97 -84 -147
-108 -185 -135 -234 -135 -239 0 -3 -25 -47 -56 -98 -31 -50 -60 -101 -65
-113 -5 -11 -25 -47 -44 -80 -19 -33 -38 -67 -42 -75 -4 -8 -26 -47 -50 -86
-24 -39 -43 -77 -43 -83 0 -6 -4 -11 -9 -11 -5 0 -13 -10 -17 -22 -3 -12 -24
-50 -45 -85 -22 -35 -39 -66 -39 -69 0 -4 -22 -43 -50 -89 -27 -46 -50 -87
-50 -93 0 -6 -3 -12 -7 -14 -8 -3 -47 -70 -72 -125 -8 -18 -19 -33 -23 -33 -4
0 -8 -5 -8 -11 0 -6 -20 -45 -45 -86 -25 -40 -45 -78 -45 -83 0 -5 -6 -15 -12
-22 -7 -8 -20 -27 -29 -43 -34 -65 -64 -120 -69 -125 -3 -3 -13 -21 -24 -40
-52 -100 -87 -161 -124 -222 -23 -37 -44 -79 -48 -92 -3 -14 -14 -32 -25 -42
-18 -16 -126 -17 -1903 -11 -1753 5 -1886 5 -1917 -11 -19 -10 -41 -32 -50
-52 -20 -41 -79 -160 -122 -245 -17 -33 -33 -62 -36 -65 -3 -3 -31 -54 -61
-115 -30 -60 -57 -112 -60 -115 -3 -3 -22 -36 -42 -75 -48 -92 -118 -226 -183
-350 -28 -55 -68 -129 -87 -165 -44 -81 -146 -276 -207 -395 -25 -49 -48 -92
-51 -95 -3 -3 -30 -54 -60 -115 -30 -60 -57 -112 -60 -115 -9 -9 -27 -43 -86
-160 -31 -63 -60 -117 -63 -120 -3 -3 -30 -52 -60 -110 -30 -58 -77 -148 -104
-201 -27 -53 -49 -107 -49 -121 -1 -65 65 -128 132 -128 81 0 51 -51 749 1270
l646 1225 1890 -3 1890 -4 32 21 c19 12 43 41 56 68 13 27 328 586 700 1244
710 1254 696 1226 664 1289 -31 61 -124 88 -179 52z"/>
</g>
</svg>
