<?xml version="1.0" standalone="no"?>
<!DOCTYPE svg PUBLIC "-//W3C//DTD SVG 20010904//EN"
 "http://www.w3.org/TR/2001/REC-SVG-20010904/DTD/svg10.dtd">
<svg version="1.0" xmlns="http://www.w3.org/2000/svg"
 width="319.000000pt" height="323.000000pt" viewBox="0 0 319.000000 323.000000"
 preserveAspectRatio="xMidYMid meet">

<g transform="translate(0.000000,323.000000) scale(0.100000,-0.100000)"
fill="#000000" stroke="none">
<path d="M1385 3209 c-525 -70 -991 -400 -1229 -869 -66 -130 -133 -319 -143
-401 -5 -42 -3 -49 19 -63 34 -23 75 -7 83 31 100 458 396 842 810 1047 210
104 378 145 625 153 206 6 353 -14 525 -71 364 -122 683 -393 853 -722 55
-109 77 -126 119 -98 35 23 29 59 -30 166 -80 144 -160 250 -277 368 -226 226
-505 375 -825 441 -115 23 -414 34 -530 18z"/>
<path d="M1385 2999 c-440 -64 -849 -360 -1050 -760 -52 -104 -110 -277 -126
-378 -11 -64 -10 -73 6 -91 21 -23 57 -26 74 -6 7 8 23 61 36 118 117 518 530
913 1049 1005 121 21 325 21 446 -1 364 -65 688 -284 884 -599 42 -67 52 -77
76 -77 32 0 60 23 60 48 0 24 -62 124 -135 218 -120 154 -301 301 -478 391
-96 48 -284 108 -396 127 -103 17 -343 20 -446 5z"/>
<path d="M1425 2790 c-401 -63 -726 -293 -897 -635 -70 -138 -106 -272 -123
-445 -7 -76 6 -102 50 -102 39 0 51 21 60 104 66 673 736 1123 1389 933 210
-61 419 -204 553 -377 36 -47 50 -58 73 -58 21 0 35 8 47 26 20 31 16 39 -72
145 -153 184 -382 324 -630 385 -113 28 -343 40 -450 24z"/>
<path d="M1419 2575 c-468 -89 -809 -498 -809 -970 0 -72 14 -95 60 -95 40 0
46 17 53 140 7 127 27 208 78 318 66 143 177 276 302 361 66 45 198 106 277
127 103 28 340 26 445 -4 116 -33 231 -93 328 -172 86 -69 120 -83 145 -58 27
27 13 65 -40 114 -115 104 -265 183 -426 225 -102 27 -308 34 -413 14z"/>
<path d="M1491 2369 c-306 -39 -565 -271 -641 -573 -22 -86 -28 -284 -10 -330
12 -33 54 -44 80 -21 16 15 18 31 18 138 -2 139 14 211 67 317 92 183 266 313
475 356 98 19 189 15 311 -16 89 -23 114 -18 125 26 13 51 -56 82 -230 104
-89 11 -103 11 -195 -1z"/>
<path d="M2271 1781 c-16 -16 -18 -30 -13 -118 9 -202 -52 -360 -197 -503 -94
-93 -161 -134 -281 -172 -101 -31 -258 -31 -375 0 -72 19 -82 20 -102 6 -26
-16 -31 -65 -10 -83 19 -15 168 -49 252 -56 138 -13 324 31 451 106 75 44 219
188 263 261 82 140 117 283 108 443 -5 87 -8 102 -27 117 -28 23 -45 23 -69
-1z"/>
<path d="M2491 1707 c-6 -8 -13 -58 -16 -112 -9 -165 -48 -295 -129 -427 -110
-182 -280 -313 -496 -384 -78 -26 -98 -28 -245 -28 -124 -1 -175 3 -225 17
-107 30 -257 109 -344 181 -83 70 -111 79 -141 46 -29 -32 -12 -64 69 -129 96
-76 174 -123 268 -160 133 -54 198 -65 368 -65 164 -1 251 15 375 66 151 63
313 191 417 328 61 79 130 219 158 320 27 93 40 321 20 345 -15 19 -64 20 -79
2z"/>
<path d="M2701 1606 c-6 -7 -16 -51 -22 -97 -56 -457 -367 -818 -808 -937 -86
-23 -115 -26 -271 -26 -158 0 -184 3 -272 26 -228 62 -415 182 -568 364 -57
68 -76 84 -99 84 -66 0 -67 -52 -2 -134 244 -306 601 -469 991 -452 205 8 345
46 528 141 315 163 540 476 597 830 18 109 19 187 3 203 -16 16 -63 15 -77 -2z"/>
<path d="M2906 1465 c-8 -9 -18 -32 -22 -53 -88 -513 -468 -922 -975 -1051
-42 -11 -131 -25 -197 -31 -473 -46 -938 182 -1207 591 -57 86 -70 99 -93 99
-68 0 -68 -52 -1 -156 218 -334 563 -562 951 -628 122 -21 353 -22 468 -2 286
50 535 176 741 374 203 194 328 407 395 671 31 122 33 169 9 187 -25 18 -50
18 -69 -1z"/>
<path d="M3109 1356 c-17 -8 -28 -31 -45 -96 -76 -287 -193 -490 -398 -695
-217 -216 -441 -342 -736 -412 -155 -37 -418 -43 -585 -15 -476 82 -877 376
-1089 800 -37 73 -61 94 -98 84 -10 -2 -23 -13 -29 -24 -14 -27 5 -78 76 -197
236 -400 640 -682 1100 -767 151 -29 472 -26 612 4 504 109 909 420 1133 870
83 167 148 380 130 426 -10 28 -41 38 -71 22z"/>
</g>
</svg>
