<?xml version="1.0" standalone="no"?>
<!DOCTYPE svg PUBLIC "-//W3C//DTD SVG 20010904//EN"
 "http://www.w3.org/TR/2001/REC-SVG-20010904/DTD/svg10.dtd">
<svg version="1.0" xmlns="http://www.w3.org/2000/svg"
 width="953.000000pt" height="221.000000pt" viewBox="0 0 953.000000 221.000000"
 preserveAspectRatio="xMidYMid meet">

<g transform="translate(0.000000,221.000000) scale(0.100000,-0.100000)"
fill="#000000" stroke="none">
<path d="M893 2185 c-220 -40 -432 -154 -589 -317 -126 -131 -203 -257 -258
-422 -37 -111 -42 -149 -21 -166 27 -23 48 0 71 81 98 340 328 591 650 708
260 95 553 75 809 -55 155 -79 310 -225 399 -376 27 -45 56 -93 63 -106 18
-30 57 -26 61 6 2 13 -14 56 -37 98 -156 289 -439 492 -765 549 -106 18 -283
18 -383 0z"/>
<path d="M923 2045 c-205 -37 -380 -132 -525 -284 -125 -130 -211 -293 -247
-464 -15 -76 -15 -79 3 -93 33 -23 49 -2 73 98 44 181 164 374 306 488 80 64
239 144 342 171 113 30 308 30 420 0 220 -58 410 -195 532 -383 46 -71 73 -85
92 -50 22 41 -128 236 -259 337 -204 157 -485 226 -737 180z"/>
<path d="M911 1895 c-168 -38 -302 -115 -422 -243 -120 -128 -193 -293 -206
-468 -5 -65 -4 -73 15 -83 27 -14 52 9 52 49 0 97 54 254 124 358 226 341 677
433 1016 207 39 -26 103 -82 143 -126 74 -81 99 -94 117 -60 8 16 1 30 -37 82
-87 116 -267 234 -418 275 -83 23 -301 28 -384 9z"/>
<path d="M945 1754 c-38 -9 -108 -34 -155 -56 -120 -57 -239 -177 -299 -298
-48 -99 -73 -206 -69 -299 l3 -66 30 0 30 0 7 91 c25 325 270 564 583 567 149
2 270 -40 387 -133 65 -53 77 -57 96 -38 23 23 12 45 -45 92 -160 130 -369
182 -568 140z"/>
<path d="M4520 1634 c-14 -2 -59 -9 -100 -15 -106 -16 -230 -56 -260 -85 l-25
-24 -3 -403 c-2 -221 0 -417 3 -435 10 -54 36 -72 103 -72 48 0 62 4 80 23 22
23 22 27 22 398 0 285 3 379 13 391 32 41 255 57 332 24 48 -20 72 -41 94 -81
14 -26 17 -80 21 -373 l5 -344 24 -19 c17 -14 39 -19 81 -19 52 0 61 3 80 27
20 26 21 34 20 392 -1 201 1 374 5 383 10 26 101 52 180 53 131 0 212 -54 234
-155 7 -31 11 -171 11 -354 0 -290 1 -303 20 -324 17 -18 32 -22 76 -22 68 0
89 10 103 51 14 40 15 559 1 676 -12 107 -41 174 -98 223 -109 96 -342 114
-556 44 l-78 -26 -67 26 c-93 37 -227 53 -321 40z"/>
<path d="M6193 1625 c-229 -50 -357 -265 -340 -570 15 -250 120 -404 318 -466
134 -42 470 -10 517 49 18 24 16 127 -5 147 -18 19 -27 18 -143 -15 -59 -17
-96 -21 -175 -18 -88 3 -106 7 -155 33 -82 44 -134 130 -142 235 l-3 35 339 3
c249 2 343 6 354 14 12 10 13 29 8 98 -19 262 -137 422 -340 459 -77 14 -155
13 -233 -4z m243 -184 c31 -14 52 -34 73 -66 32 -50 57 -143 43 -157 -5 -5
-114 -7 -243 -6 -229 3 -234 3 -237 24 -4 31 36 132 67 166 58 65 196 83 297
39z"/>
<path d="M7350 1634 c-147 -18 -258 -60 -305 -116 -65 -77 -65 -74 -65 -503 0
-291 3 -394 12 -403 7 -7 44 -12 95 -12 80 0 84 1 93 26 6 15 10 177 10 389 0
363 0 364 23 390 29 34 78 44 218 45 76 0 119 4 127 12 7 7 12 39 12 75 0 55
-3 64 -24 78 -25 16 -132 27 -196 19z"/>
<path d="M7971 1624 c-171 -36 -277 -144 -322 -324 -21 -84 -18 -329 5 -405
52 -173 141 -264 300 -310 86 -25 289 -17 366 14 121 49 209 147 251 280 31
95 38 291 14 398 -34 153 -111 259 -228 313 -105 49 -257 63 -386 34z m292
-197 c95 -56 132 -159 125 -354 -4 -115 -6 -125 -39 -190 -28 -57 -43 -73 -87
-99 -95 -57 -228 -54 -312 7 -30 22 -51 50 -73 97 -31 66 -32 70 -32 212 0
175 15 231 79 294 53 54 91 66 201 63 79 -2 97 -6 138 -30z"/>
<path d="M2929 1607 c-116 -40 -189 -114 -210 -215 -21 -103 5 -206 68 -263
47 -43 93 -65 221 -108 142 -47 157 -54 195 -89 21 -21 27 -35 27 -70 0 -129
-201 -171 -396 -82 -79 36 -78 36 -104 10 -26 -26 -28 -108 -2 -139 9 -12 49
-34 87 -48 94 -35 290 -44 381 -18 104 29 185 89 219 162 43 89 38 222 -10
295 -41 62 -98 95 -239 140 -203 63 -236 86 -236 161 0 81 63 120 191 119 62
0 90 -6 150 -31 41 -17 79 -31 86 -31 39 0 58 109 26 149 -10 12 -56 35 -103
51 -112 39 -249 42 -351 7z"/>
<path d="M9005 1609 c-72 -25 -127 -64 -164 -116 -39 -53 -51 -95 -51 -173 0
-160 60 -222 285 -296 61 -20 131 -47 157 -60 46 -23 78 -64 78 -99 0 -36 -32
-83 -73 -106 -36 -21 -54 -24 -132 -23 -79 1 -101 5 -181 37 -51 21 -99 34
-108 31 -21 -8 -28 -38 -24 -105 3 -53 4 -54 48 -76 75 -36 162 -53 272 -53
249 0 392 103 406 291 12 174 -61 256 -287 324 -178 53 -231 90 -231 163 0 31
29 76 61 93 66 35 200 28 299 -17 51 -23 64 -25 86 -15 24 10 25 15 22 78 l-3
68 -80 34 c-74 32 -89 35 -200 38 -102 3 -129 0 -180 -18z"/>
<path d="M940 1602 c-167 -56 -280 -159 -340 -311 -28 -72 -43 -184 -33 -251
8 -53 10 -55 38 -55 l30 0 5 116 c5 108 8 121 42 191 98 197 303 293 517 243
78 -19 103 -13 99 22 -4 38 -60 55 -193 59 -88 3 -121 0 -165 -14z"/>
<path d="M3676 1594 c-14 -14 -16 -72 -16 -493 0 -358 3 -480 12 -489 16 -16
170 -16 186 0 9 9 12 131 12 488 0 555 9 510 -108 510 -51 0 -75 -4 -86 -16z"/>
<path d="M1546 1219 c-16 -10 -17 -19 -12 -69 8 -72 -13 -178 -49 -251 -35
-68 -126 -159 -194 -194 -30 -14 -86 -33 -125 -41 -64 -14 -81 -14 -169 1
-110 18 -130 16 -125 -17 4 -29 35 -43 131 -59 255 -42 499 108 583 361 23 69
26 238 5 263 -16 20 -20 20 -45 6z"/>
<path d="M1698 1168 c-11 -9 -17 -37 -21 -98 -7 -113 -37 -203 -98 -294 -114
-171 -291 -266 -494 -266 -138 0 -257 42 -367 131 -67 54 -102 62 -114 27 -5
-18 2 -30 39 -63 202 -178 496 -220 729 -105 87 44 140 83 206 155 107 117
172 277 172 425 0 91 -15 116 -52 88z"/>
<path d="M1832 1093 c-5 -10 -12 -46 -16 -81 -3 -35 -17 -98 -31 -140 -132
-394 -559 -603 -945 -463 -127 47 -230 121 -337 244 -37 43 -44 47 -62 37 -32
-16 -25 -43 25 -105 58 -71 157 -153 235 -195 508 -271 1126 46 1188 611 9 81
1 109 -29 109 -11 0 -23 -8 -28 -17z"/>
<path d="M1974 998 c-5 -7 -19 -53 -31 -103 -100 -401 -450 -675 -859 -675
-161 0 -313 43 -461 132 -82 49 -211 175 -268 262 -43 66 -54 76 -75 74 -17
-2 -26 -10 -28 -25 -7 -47 124 -215 242 -309 249 -199 580 -260 886 -162 212
68 406 222 524 417 60 100 119 265 120 341 1 49 -1 55 -21 58 -11 2 -25 -3
-29 -10z"/>
<path d="M2085 873 c-40 -146 -80 -237 -148 -338 -135 -203 -333 -348 -572
-421 -84 -26 -102 -28 -275 -28 -161 0 -196 3 -265 22 -99 27 -249 99 -329
156 -122 88 -249 235 -316 367 -31 59 -53 77 -76 58 -21 -17 -18 -32 20 -108
127 -251 376 -453 660 -535 390 -113 819 5 1098 302 122 130 218 300 260 464
24 93 21 118 -16 118 -22 0 -27 -7 -41 -57z"/>
</g>
</svg>
